<?xml version="1.0" standalone="no"?>
<!DOCTYPE svg PUBLIC "-//W3C//DTD SVG 20010904//EN"
 "http://www.w3.org/TR/2001/REC-SVG-20010904/DTD/svg10.dtd">
<svg version="1.0" xmlns="http://www.w3.org/2000/svg"
 width="400.000000pt" height="400.000000pt" viewBox="0 0 400.000000 400.000000"
 preserveAspectRatio="xMidYMid meet">
<metadata>
Created by potrace 1.11, written by Peter Selinger 2001-2013
</metadata>
<g transform="translate(0.000000,400.000000) scale(0.100000,-0.100000)"
fill="#000000" stroke="none">
<path d="M1423 2532 l537 -537 -537 -538 -538 -537 1115 0 1115 0 -538 537
-537 538 537 537 538 538 -1115 0 -1115 0 538 -538z m1062 -7 c-263 -267 -481
-485 -485 -485 -4 0 -222 218 -485 485 l-477 485 962 0 962 0 -477 -485z m0
-1060 l477 -485 -962 0 -962 0 477 485 c263 267 481 485 485 485 4 0 222 -218
485 -485z"/>
</g>
</svg>
