<?xml version="1.0" standalone="no"?>
<!DOCTYPE svg PUBLIC "-//W3C//DTD SVG 20010904//EN"
 "http://www.w3.org/TR/2001/REC-SVG-20010904/DTD/svg10.dtd">
<svg version="1.0" xmlns="http://www.w3.org/2000/svg"
 width="700.000000pt" height="700.000000pt" viewBox="0 0 700.000000 700.000000"
 preserveAspectRatio="xMidYMid meet">
<metadata>
Created by potrace 1.11, written by Peter Selinger 2001-2013
</metadata>
<g transform="translate(0.000000,700.000000) scale(0.100000,-0.100000)"
fill="#000000" stroke="none">
<path d="M350 3549 l0 -3101 1473 1473 c811 811 1481 1480 1489 1487 13 10
233 -205 1509 -1478 821 -819 1494 -1489 1496 -1487 1 1 57 56 123 121 107
106 119 121 106 135 -8 9 -679 681 -1490 1493 -812 812 -1476 1479 -1476 1482
0 4 666 672 1480 1486 814 814 1480 1482 1480 1485 0 3 -1393 5 -3095 5
l-3095 0 0 -3101z m5350 2748 c0 -1 -534 -536 -1187 -1189 l-1188 -1187 -1189
1189 -1190 1190 2377 0 c1307 0 2377 -1 2377 -3z m-2620 -2622 c0 0 -535 -536
-1190 -1190 l-1190 -1189 0 2379 0 2379 1190 -1189 c655 -655 1190 -1190 1190
-1190z"/>
</g>
</svg>
